<?xml version="1.0" encoding="utf-8"?>
<!-- Generator: Adobe Illustrator 22.0.1, SVG Export Plug-In . SVG Version: 6.00 Build 0)  -->
<svg version="1.1" id="Layer_1" xmlns="http://www.w3.org/2000/svg" xmlns:xlink="http://www.w3.org/1999/xlink" x="0px" y="0px"
	 viewBox="0 0 130 92.9" style="enable-background:new 0 0 130 92.9;" xml:space="preserve">
<style type="text/css">
	.st0{fill:#FFFFFF;}
</style>
<g>
	<g>
		<path class="st0" d="M28.7,24.5c-0.4-4.1-1.2-7.4-1.9-9.9c-1.2-1.2-2-2.6-2.4-4.2c-4,6.5-4.6,15.4-4.7,20.2c0,0,0,0,0,0.1
			c0,0.4,0,0.9,0,1.4c0,0,0,0,0,0c0,0.6,0,1.2,0,1.8c0,0.5,0,1,0,1.5c2.5-2.2,5.9-4.2,9.3-4.8C28.8,28.8,28.7,26.9,28.7,24.5z"/>
		<path class="st0" d="M29.7,33.4c-0.2-0.4-0.4-0.9-0.5-1.3c-3.6,0.6-7.2,3-9.6,5.5c0,0.8,0,1.6,0,2.3C22,37.2,25.7,34.4,29.7,33.4z
			"/>
		<path class="st0" d="M48.8,38.5l0-1.3c-3.7,0.3-7.5,2.5-10.1,5c0.2,0.6,0.3,1.2,0.4,1.9C41.5,41.6,45.1,39.3,48.8,38.5z"/>
		<path class="st0" d="M59.2,71.9c-3.5-1.6-5.2-2.8-5.2-3.4c0-0.4,0.6-0.6,1.7-0.6c-1.9-1.8-3.4-3.5-4.4-5.2
			c-1.4-2.4-2.2-4.6-2.3-6.4c-0.2-2.2-0.2-4-0.3-5.4c0-2.5-0.1-5.4-0.1-8.9l0-1.8c-3.9,1-7.7,3.8-9.9,6.5l0,0.3
			c-0.1,2-0.1,3.8-0.1,5.2c0,2,0.1,3.4,0.3,4.1c0.3,0.9,0.9,2.2,1.9,3.7c2.1,3.4,5.1,6.5,8.7,9.5c1.2,1,2.6,1.8,3.9,2.4
			c2,0.9,4.5,1.7,7.7,2.4c4.6,1.1,7.2,1.8,7.8,2C64.7,74.3,61.4,72.9,59.2,71.9z"/>
		<path class="st0" d="M48.8,33.3c0-3,0.1-5.1,0.1-6.5l0.1-8c0-1.2,0.1-2,0.1-2.6c0,0,0.3-5.3-5.1-5c-4.1,0.2-4.9,2.5-4.9,4.9
			c0,0.1,0,0.3,0,0.4c0,0,0,0,0,0c0,1.3,0.3,2.6,0.3,3.6c0,0,0,0,0,0c0,0.8,0,1.6,0,2.5c0,3.4-0.2,6.2-0.5,8.5
			c-0.2,1.3-0.6,2.3-1.2,3c-0.4,0.5-1.3,0.7-2.6,0.7c-0.9,0-1.9-0.1-3-0.3c-5.2,0.3-10.5,4.7-12.7,8c-0.1,7.3-0.3,11.9-0.5,13.7
			c0,0-0.4,4,5,4.9c0,0,0,0.1,0,0.1c0,0,0-0.1,0-0.1c4.2,0.7,4.9-4.1,5-4.9h0c0,0,0,0,0,0c0,0,0,0,0,0c0-0.1,0-0.1,0-0.1l0,0v0
			c-0.1-1.3-0.2-2.9-0.2-5c0-0.8,0-2,0.1-3.7C29,46,29,44.9,29,44.1c0-0.2,0-0.4,0.1-0.6c0.1-0.7,0.3-1.3,0.6-1.8
			c0.3-0.6,0.8-0.9,1.5-1c1.5-0.2,2.9-0.3,4.2-0.3c0.6,0,1.1,0,1.5,0.1c0.3,0,0.6,0.2,0.9,0.3c2.9-2.6,7-5,11.1-5.3L48.8,33.3z"/>
	</g>
	<g>
		<path class="st0" d="M65.6,55.4c0,0.8-0.2,1.6-0.5,2.4c-0.3,0.7-0.7,1.4-1.3,2c-0.5,0.6-1.2,1-1.9,1.3c-0.7,0.3-1.5,0.5-2.3,0.5
			c-0.8,0-1.6-0.2-2.3-0.5c-0.7-0.3-1.4-0.8-1.9-1.3c-0.5-0.6-1-1.2-1.3-1.9c-0.3-0.7-0.5-1.5-0.5-2.4c0-0.2,0.1-0.4,0.2-0.6
			c0.2-0.1,0.3-0.2,0.5-0.2c0.2,0,0.4,0.1,0.5,0.2c0.1,0.1,0.2,0.3,0.2,0.6c0,0.6,0.1,1.2,0.4,1.8c0.2,0.6,0.6,1,1,1.5
			c0.4,0.4,0.9,0.7,1.4,1c0.6,0.2,1.1,0.4,1.8,0.4c0.6,0,1.2-0.1,1.7-0.4s1-0.6,1.4-1c0.4-0.4,0.7-0.9,1-1.5
			c0.2-0.6,0.4-1.2,0.4-1.8c0-0.6-0.1-1.2-0.4-1.8c-0.2-0.6-0.6-1.1-1-1.5c-0.4-0.4-0.9-0.7-1.4-1s-1.1-0.4-1.7-0.4
			c-0.2,0-0.4-0.1-0.5-0.2c-0.1-0.1-0.2-0.3-0.2-0.5c0-0.2,0.1-0.4,0.2-0.5c0.1-0.2,0.3-0.2,0.5-0.2c0.8,0,1.6,0.2,2.3,0.5
			c0.7,0.3,1.4,0.8,1.9,1.3c0.5,0.6,1,1.2,1.3,2C65.5,53.8,65.6,54.6,65.6,55.4z M64.7,48.8c0,0.2-0.1,0.4-0.2,0.5
			c-0.2,0.1-0.3,0.2-0.5,0.2c-0.2,0-0.4-0.1-0.5-0.2c-0.1-0.1-0.2-0.3-0.2-0.5c0-0.5-0.1-1-0.3-1.4c-0.2-0.4-0.4-0.8-0.8-1.2
			c-0.3-0.3-0.7-0.6-1.1-0.8c-0.4-0.2-0.9-0.3-1.4-0.3c-0.5,0-1,0.1-1.4,0.3c-0.4,0.2-0.8,0.5-1.1,0.8s-0.6,0.7-0.8,1.2
			c-0.2,0.4-0.3,0.9-0.3,1.4s0.1,1,0.3,1.4s0.4,0.8,0.8,1.2c0.3,0.3,0.7,0.6,1.1,0.8c0.4,0.2,0.9,0.3,1.4,0.3c0.1,0,0.2,0,0.3,0.1
			c0.1,0.1,0.2,0.1,0.2,0.2c0.1,0.1,0.1,0.2,0.1,0.3c0,0.1,0,0.2,0,0.3c0,0.2-0.1,0.4-0.2,0.6C60,53.9,59.8,54,59.7,54
			c-0.7,0-1.4-0.1-2-0.4c-0.6-0.3-1.1-0.6-1.6-1.1c-0.5-0.5-0.8-1-1.1-1.6s-0.4-1.3-0.4-2s0.1-1.4,0.4-2c0.3-0.6,0.6-1.2,1.1-1.7
			c0.5-0.5,1-0.8,1.6-1.1c0.6-0.3,1.3-0.4,2-0.4c0.7,0,1.3,0.1,2,0.4c0.6,0.3,1.1,0.6,1.6,1.1c0.5,0.5,0.8,1,1.1,1.6
			C64.6,47.4,64.7,48.1,64.7,48.8z"/>
		<path class="st0" d="M76.6,44.2c0,0.2-0.1,0.4-0.2,0.6c-0.1,0.1-0.3,0.2-0.5,0.2h-7.5v15.8c0,0.2-0.1,0.4-0.2,0.5
			c-0.1,0.1-0.3,0.2-0.5,0.2c-0.2,0-0.3-0.1-0.5-0.2c-0.2-0.1-0.2-0.3-0.2-0.6V45h-2.4c-0.2,0-0.4-0.1-0.6-0.2s-0.2-0.3-0.2-0.5
			c0-0.2,0.1-0.4,0.2-0.6c0.1-0.1,0.3-0.2,0.5-0.2h2.4v-2.8c0-0.2,0.1-0.4,0.2-0.5c0.1-0.2,0.3-0.2,0.5-0.2c0.2,0,0.4,0.1,0.5,0.2
			s0.2,0.3,0.2,0.6v2.8h7.5c0.2,0,0.4,0.1,0.5,0.2S76.6,44,76.6,44.2z"/>
		<path class="st0" d="M95.4,52.6c0,0.8-0.1,1.6-0.3,2.4c-0.2,0.8-0.5,1.5-0.9,2.1c-0.4,0.7-0.9,1.3-1.4,1.8c-0.5,0.5-1.2,1-1.8,1.4
			c-0.7,0.4-1.4,0.7-2.1,0.9c-0.8,0.2-1.6,0.3-2.4,0.3c-0.8,0-1.6-0.1-2.4-0.3c-0.8-0.2-1.5-0.5-2.1-0.9c-0.7-0.4-1.3-0.9-1.8-1.4
			s-1-1.2-1.4-1.8c-0.4-0.7-0.7-1.4-0.9-2.1c-0.2-0.8-0.3-1.6-0.3-2.4s0.1-1.6,0.3-2.4c0.2-0.8,0.5-1.5,0.9-2.1
			c0.4-0.7,0.9-1.3,1.4-1.8c0.5-0.5,1.2-1,1.8-1.4c0.7-0.4,1.4-0.7,2.1-0.9s1.6-0.3,2.4-0.3c0.8,0,1.6,0.1,2.4,0.3
			c0.8,0.2,1.5,0.5,2.1,0.9c0.7,0.4,1.3,0.9,1.8,1.4c0.5,0.5,1,1.2,1.4,1.8c0.4,0.7,0.7,1.4,0.9,2.1C95.3,51,95.4,51.7,95.4,52.6z
			 M93.9,52.6c0-1-0.2-2-0.6-2.9c-0.4-0.9-0.9-1.7-1.6-2.4c-0.7-0.7-1.5-1.2-2.4-1.6c-0.9-0.4-1.9-0.6-2.9-0.6c-1,0-2,0.2-2.9,0.6
			c-0.9,0.4-1.7,0.9-2.4,1.6s-1.2,1.5-1.6,2.4c-0.4,0.9-0.6,1.9-0.6,2.9c0,1,0.2,2,0.6,2.9s0.9,1.7,1.6,2.4c0.7,0.7,1.5,1.2,2.4,1.6
			s1.9,0.6,2.9,0.6c1,0,2-0.2,2.9-0.6s1.7-0.9,2.4-1.6c0.7-0.7,1.2-1.5,1.6-2.4S93.9,53.6,93.9,52.6z"/>
		<path class="st0" d="M103.2,44.3c0,0.2-0.1,0.4-0.2,0.6c-0.1,0.1-0.3,0.2-0.5,0.2c-0.6,0-1.1,0.1-1.6,0.4c-0.5,0.2-1,0.6-1.3,1
			c-0.4,0.4-0.7,0.9-0.9,1.5c-0.2,0.6-0.3,1.2-0.3,1.8v11.1c0,0.2-0.1,0.4-0.2,0.5c-0.1,0.1-0.3,0.2-0.5,0.2c-0.2,0-0.4-0.1-0.5-0.2
			c-0.1-0.2-0.2-0.3-0.2-0.5V44.3c0-0.2,0.1-0.4,0.2-0.5c0.1-0.1,0.3-0.2,0.5-0.2c0.2,0,0.4,0.1,0.5,0.2c0.1,0.1,0.2,0.3,0.2,0.5
			v1.3c0.5-0.6,1.1-1.1,1.9-1.5c0.7-0.4,1.5-0.6,2.3-0.6c0.2,0,0.4,0.1,0.5,0.2C103.1,44,103.2,44.2,103.2,44.3z"/>
		<path class="st0" d="M109.1,53c-0.2,0-0.4-0.1-0.6-0.2s-0.2-0.3-0.2-0.5c0-0.2,0.1-0.4,0.2-0.5c0.1-0.1,0.3-0.2,0.5-0.2h11.4
			c-0.1-0.9-0.4-1.7-0.8-2.5c-0.4-0.8-1-1.5-1.6-2c-0.7-0.6-1.4-1-2.2-1.4s-1.7-0.5-2.7-0.5c-1,0-2,0.2-2.9,0.6
			c-0.9,0.4-1.7,0.9-2.4,1.6s-1.2,1.5-1.6,2.4s-0.6,1.9-0.6,2.9c0,0.7,0.1,1.4,0.3,2c0.2,0.6,0.4,1.2,0.7,1.8
			c0.3,0.6,0.7,1.1,1.2,1.5c0.5,0.5,1,0.8,1.5,1.2s1.1,0.6,1.8,0.7c0.6,0.2,1.3,0.3,2,0.3c0.9,0,1.8-0.2,2.6-0.5
			c0.8-0.3,1.6-0.7,2.2-1.3c0.2-0.2,0.4-0.2,0.6-0.2c0.2,0,0.4,0.1,0.5,0.2c0.1,0.1,0.2,0.3,0.2,0.5c0,0.2-0.1,0.4-0.3,0.5
			c-0.8,0.7-1.7,1.2-2.7,1.6c-1,0.4-2.1,0.6-3.2,0.6c-0.8,0-1.6-0.1-2.4-0.3c-0.8-0.2-1.5-0.5-2.1-0.9c-0.7-0.4-1.3-0.9-1.8-1.4
			s-1-1.2-1.4-1.8c-0.4-0.7-0.7-1.4-0.9-2.2c-0.2-0.8-0.3-1.6-0.3-2.4c0-0.8,0.1-1.6,0.3-2.4c0.2-0.8,0.5-1.5,0.9-2.1
			c0.4-0.7,0.9-1.3,1.4-1.8c0.5-0.5,1.2-1,1.8-1.4c0.7-0.4,1.4-0.7,2.1-0.9s1.6-0.3,2.4-0.3c0.8,0,1.6,0.1,2.4,0.3
			c0.8,0.2,1.5,0.5,2.2,0.9c0.7,0.4,1.3,0.9,1.8,1.4s1,1.2,1.4,1.9c0.4,0.7,0.7,1.5,0.9,2.3c0.2,0.8,0.3,1.7,0.3,2.6H109.1z"/>
	</g>
</g>
</svg>
